Vexille (2007) 
Bekushiru: 2077 Nihon sakoku (original title)
 109 min  -  Animation | Action | Sci-Fi  -   18 August 2007 (Japan)
6.9 Your rating:   -/10   Ratings: 6.9/10 from 4,754 users   
Reviews: 35 user | 42 critic
Japan, 2077: A female agent named Vexille is dispatched to Tokyo to investigate whether Japanese are developing robotic technology, which has been banned by the U.N. due to its potential threat to humankind.

Director: Fumihiko Sori
Writers: Fumihiko Sori, Haruka Handa
Stars: Meisa Kuroki, Shôsuke Tanihara and Yasuko Matsuyuki | 


Format                                   : MPEG-4
Format profile                           : Base Media
Codec ID                                 : isom
File size                                : 679 MiB
Duration                                 : 1h 49mn
Overall bit rate mode                    : Variable
Overall bit rate                         : 864 Kbps
Encoded date                             : UTC 2011-01-17 20:03:25
Tagged date                              : UTC 2011-01-17 20:03:25

Video
ID                                       : 1
Format                                   : AVC
Format/Info                              : Advanced Video Codec
Format profile                           : Baseline@L3.0
Format settings, CABAC                   : No
Format settings, ReFrames                : 1 frame
Codec ID                                 : avc1
Codec ID/Info                            : Advanced Video Coding
Duration                                 : 1h 49mn
Bit rate                                 : 736 Kbps
Nominal bit rate                         : 800 Kbps
Maximum bit rate                         : 2 184 Kbps
Width                                    : 800 pixels
Height                                   : 480 pixels
Display aspect ratio                     : 1.667
Frame rate mode                          : Constant
Frame rate                               : 23.976 fps
Color space                              : YUV
Chroma subsampling                       : 4:2:0
Bit depth                                : 8 bits
Scan type                                : Progressive
Bits/(Pixel*Frame)                       : 0.080
Stream size                              : 578 MiB (85%)
Writing library                          : x264 core 65 r1077 e46f648


ID                                       : 2
Format                                   : AAC
Format/Info                              : Advanced Audio Codec
Format profile                           : LC
Codec ID                                 : 40
Duration                                 : 1h 49mn
Bit rate mode                            : Variable
Bit rate                                 : 126 Kbps
Maximum bit rate                         : 175 Kbps
Channel(s)                               : 2 channels
Channel positions                        : Front: L R
Sampling rate                            : 44.1 KHz
Compression mode                         : Lossy
Stream size                              : 98.7 MiB (15%)
Encoded date                             : UTC 2011-01-17 20:04:12
Tagged date                              : UTC 2011-01-17 20:04:23
